<svg xmlns="http://www.w3.org/2000/svg" xmlns:xlink="http://www.w3.org/1999/xlink" version="1.1" x="0px" y="0px" viewBox="0 0 224.6 17.5" enable-background="new 0 0 224.6 17.5" xml:space="preserve">
<path fill="#3b414c" d="M0.3 1.3c0-0.5 0.4-1 0.9-1h6.2c1.9 0 3.4 0.6 4.4 1.5c0.7 0.7 1.1 1.6 1.1 2.7v0c0 2.2-1.3 3.3-2.7 3.9 c2 0.6 3.6 1.8 3.6 4.1v0c0 2.9-2.4 4.6-6.1 4.6H1.2c-0.5 0-0.9-0.4-0.9-1V1.3z M7.1 7.9c2.3 0 3.9-1 3.9-3v0 c0-1.7-1.3-2.7-3.7-2.7H2.1v5.8H7.1z M7.8 15.5c2.5 0 4.1-1.1 4.1-3v0c0-1.8-1.5-2.9-4.5-2.9H2.1v5.9H7.8z"/><path fill="#3b414c" d="M19 1.2c0-0.5 0.4-1 0.9-1c0.5 0 1 0.4 1 1v15.1c0 0.5-0.4 1-1 1c-0.5 0-0.9-0.4-0.9-1V1.2z"/><path fill="#3b414c" d="M25.9 15.9L32.8 1C33 0.5 33.4 0.2 34 0.2h0.1c0.6 0 1 0.3 1.2 0.8l6.8 14.9c0.1 0.2 0.1 0.3 0.1 0.5 c0 0.5-0.4 0.9-0.9 0.9c-0.5 0-0.8-0.3-0.9-0.7l-1.8-3.9h-9.2l-1.8 3.9c-0.2 0.4-0.5 0.6-0.9 0.6c-0.5 0-0.9-0.4-0.9-0.9 C25.8 16.3 25.8 16.1 25.9 15.9z M37.8 11L34 2.4L30.1 11H37.8z"/><path fill="#3b414c" d="M47 1.2c0-0.5 0.4-0.9 0.9-0.9h0.3c0.4 0 0.7 0.2 1 0.6l10.2 13V1.2c0-0.5 0.4-0.9 0.9-0.9 c0.5 0 0.9 0.4 0.9 0.9v15.2c0 0.5-0.4 0.9-0.9 0.9h-0.1c-0.4 0-0.7-0.2-1-0.6L48.8 3.4v13c0 0.5-0.4 0.9-0.9 0.9 c-0.5 0-0.9-0.4-0.9-0.9V1.2z"/><path fill="#3b414c" d="M65.4 8.8L65.4 8.8c0-4.8 3.6-8.7 8.5-8.7c2.7 0 4.4 0.9 6 2.2c0.2 0.2 0.4 0.4 0.4 0.8 c0 0.5-0.5 0.9-1 0.9c-0.3 0-0.5-0.1-0.6-0.2c-1.3-1.2-2.8-1.9-4.8-1.9c-3.7 0-6.5 3-6.5 6.9v0c0 3.9 2.8 6.9 6.5 6.9 c2.1 0 3.6-0.7 5-2c0.1-0.1 0.4-0.3 0.6-0.3c0.5 0 0.9 0.4 0.9 0.9c0 0.3-0.1 0.5-0.3 0.7c-1.7 1.5-3.5 2.5-6.2 2.5 C69 17.5 65.4 13.6 65.4 8.8z"/><path fill="#3b414c" d="M84 15.9L90.8 1c0.2-0.5 0.6-0.8 1.2-0.8h0.1c0.6 0 1 0.3 1.2 0.8l6.8 14.9c0.1 0.2 0.1 0.3 0.1 0.5 c0 0.5-0.4 0.9-0.9 0.9c-0.5 0-0.8-0.3-0.9-0.7l-1.8-3.9h-9.2l-1.8 3.9c-0.2 0.4-0.5 0.6-0.9 0.6c-0.5 0-0.9-0.4-0.9-0.9 C83.9 16.3 83.9 16.1 84 15.9z M95.9 11L92 2.4L88.2 11H95.9z"/><path fill="#3b414c" d="M113.5 1.2c0-0.5 0.4-0.9 0.9-0.9h0.3c0.4 0 0.7 0.2 1 0.6l10.2 13V1.2c0-0.5 0.4-0.9 0.9-0.9 c0.5 0 0.9 0.4 0.9 0.9v15.2c0 0.5-0.4 0.9-0.9 0.9h-0.1c-0.4 0-0.7-0.2-1-0.6L115.3 3.4v13c0 0.5-0.4 0.9-0.9 0.9 c-0.5 0-0.9-0.4-0.9-0.9V1.2z"/><path fill="#3b414c" d="M133.6 16.2V1.3c0-0.5 0.4-1 0.9-1H145c0.5 0 0.9 0.4 0.9 0.9s-0.4 0.9-0.9 0.9h-9.5v5.7h8.4 c0.5 0 0.9 0.4 0.9 0.9c0 0.5-0.4 0.9-0.9 0.9h-8.4v5.9h9.6c0.5 0 0.9 0.4 0.9 0.9c0 0.5-0.4 0.9-0.9 0.9h-10.6 C134.1 17.2 133.6 16.7 133.6 16.2z"/><path fill="#3b414c" d="M150.2 8.8L150.2 8.8c0-4.7 3.4-8.7 8.4-8.7c2.5 0 4.2 0.7 5.7 1.8c0.2 0.2 0.4 0.4 0.4 0.8 c0 0.5-0.4 1-0.9 1c-0.2 0-0.4-0.1-0.6-0.2c-1.2-0.9-2.5-1.5-4.7-1.5c-3.7 0-6.4 3.1-6.4 6.9v0c0 4 2.6 7 6.6 7 c1.9 0 3.7-0.7 4.8-1.7V9.9h-4.5c-0.5 0-0.8-0.4-0.8-0.8c0-0.5 0.4-0.9 0.8-0.9h5.4c0.5 0 0.9 0.4 0.9 1v5.1c0 0.5-0.2 0.9-0.6 1.2 c-1.5 1.1-3.6 2-6.1 2C153.4 17.5 150.2 13.6 150.2 8.8z"/><path fill="#3b414c" d="M170.9 1.3c0-0.5 0.4-1 0.9-1h6.3c2.1 0 3.7 0.6 4.8 1.7c0.8 0.8 1.3 2 1.3 3.3v0c0 2.8-1.9 4.4-4.5 4.9 l4.2 5.4c0.2 0.2 0.3 0.4 0.3 0.7c0 0.5-0.5 0.9-1 0.9c-0.4 0-0.7-0.2-0.9-0.5l-4.7-6.1h-4.8v5.7c0 0.5-0.4 1-1 1 c-0.5 0-0.9-0.4-0.9-1V1.3z M178 8.9c2.5 0 4.3-1.3 4.3-3.5v0c0-2.1-1.6-3.3-4.3-3.3h-5.2v6.8H178z"/><path fill="#3b414c" d="M187.7 8.8L187.7 8.8c0-4.7 3.5-8.7 8.6-8.7c5.1 0 8.5 4 8.5 8.6v0c0 4.6-3.5 8.7-8.6 8.7 C191.2 17.5 187.7 13.5 187.7 8.8z M202.9 8.8L202.9 8.8c0-3.9-2.8-7-6.6-7s-6.6 3.1-6.6 6.9v0c0 3.8 2.8 6.9 6.6 6.9 S202.9 12.6 202.9 8.8z"/><path fill="#3b414c" d="M210.1 1.2c0-0.5 0.4-0.9 0.9-0.9h0.3c0.4 0 0.7 0.2 1 0.6l10.2 13V1.2c0-0.5 0.4-0.9 0.9-0.9 c0.5 0 0.9 0.4 0.9 0.9v15.2c0 0.5-0.4 0.9-0.9 0.9h-0.1c-0.4 0-0.7-0.2-1-0.6L211.9 3.4v13c0 0.5-0.4 0.9-0.9 0.9 c-0.5 0-0.9-0.4-0.9-0.9V1.2z"/></svg>