<svg xmlns="http://www.w3.org/2000/svg" viewBox="0 0 403.9 43.2"><style>.style0{fill:#fff;}</style><path d="M39.6,28.2v3.7c0,6.3-5.2,11.4-11.4,11.4H7.9l0-12.7l-2.3,0.6l-1.1-8.8l3.4-1l0-12.4L0.3,9.1L0,0.1h7.9h14
	c6.3,0,11.4,5.1,11.4,11.4v4.8c0,0.6,0,1.1-0.1,1.7C37,19.8,39.6,23.7,39.6,28.2z M22.5,18c1.1-0.3,1.9-1.3,1.9-1.7v-4.8
	c0-1.4-1.1-2.4-2.4-2.4h-5v10.2L22.5,18z M30.5,28.2c0-1.2-0.9-2.2-2-2.4l-11.6,2.8v6h11.2c1.3,0,2.4-1.1,2.4-2.4V28.2z" class="style0"/><path d="M51.2,0v43.2h-9V0H51.2z" class="style0"/><path d="M84.9,11.4v31.8h-9.1v-16L63,30.7v12.5h-9.1V11.4C53.9,5.1,59,0,65.4,0h8.1C79.8,0,84.9,5.1,84.9,11.4z M75.9,11.4
	c0-1.3-1.1-2.4-2.4-2.4h-8.1c-1.3,0-2.4,1.1-2.4,2.4v9.9l12.9-3.5V11.4z" class="style0"/><path d="M118.7,11.4v31.8h-9V11.4c0-1.3-1-2.4-2.3-2.4H96.6v34.2h-9V0h19.8C113.5,0,118.7,5.2,118.7,11.4z" class="style0"/><path d="M143.2,14.5v-3.1c0-1.4-1.1-2.4-2.4-2.4h-8.1c-1.4,0-2.5,1.1-2.5,2.4v20.3c0,1.4,1.1,2.4,2.5,2.4h8.1c1.3,0,2.4-1.1,2.4-2.4
	v-4.5h8.9v4.5c0,6.3-5,11.4-11.3,11.4h-8.1c-6.3,0-11.4-5.1-11.4-11.4V11.4c0-6.3,5.1-11.4,11.4-11.4h8.1c6.3,0,11.3,5.1,11.3,11.4
	v3.1H143.2z" class="style0"/><path d="M185.8,11.4v31.8h-9.1v-16l-12.9,3.5v12.5h-9.1V11.4c0-6.3,5.1-11.4,11.4-11.4h8.1C180.7,0,185.8,5.1,185.8,11.4z
	 M176.7,11.4c0-1.3-1.1-2.4-2.4-2.4h-8.1c-1.3,0-2.4,1.1-2.4,2.4v9.9l12.9-3.5V11.4z" class="style0"/><path d="M231,11.2v21c0,6.2-4.7,10.9-11.1,10.9H200h-2l-0.5-5l2.5,0v-33h-7.1l-0.3-5h7.4h19.9C226.2,0.2,231,5,231,11.2z M226,11.2
	c0-4-2.2-6-6-6h-15v33l15,0c3.6,0,6-2.3,6-6V11.2z" class="style0"/><path d="M246,38.2h15v5h-15.2c-6.3,0-11.8-4.7-11.8-11V11.3c0-6.3,5.6-11.1,12-11.1h15v5h-15c-3.6,0-7,3.2-7,6v10l16-5v5l-16,5v6
	C239,35.2,242.3,38.2,246,38.2z" class="style0"/><path d="M289,13.2v-2c0-3.1-3.1-6-6-6h-9c-2.8,0-6,3.2-6,6c0,0,0,2.7,0,6.7c0,0.5,0.1,0.6,0.2,0.6c0.1,0.1,0.2,0.2,0.4,0.2
	c0.2,0,0.4,0.1,0.6,0l8.3-1.5c0,0,4.7-1,5.4-1c6.1,0,11.5,5.4,11.5,11.7v3.9c0,6.3-5.3,11.4-11.5,11.4h-9c-6.3,0-11-5.3-11-11.6
	v-0.4h5v0.4c0,3.1,3.3,6.6,6,6.6h9c2.4,0,6-3.5,6-7v-3c0-3.3-2.4-6.9-5-6.9c-0.4,0-5.6,1.1-5.6,1.1c-0.8,0.2-4.9,1-5.8,1.1
	c-2.3,0.4-4.3,0.6-5.6,0.4c-2.1-0.4-4-2.3-4-6c0-4,0-6.7,0-6.7c0-6.3,4.7-11,11-11h10c6,0,10,5,10,11v2H289z" class="style0"/><path d="M303,0.2v43h-5v-43H303z" class="style0"/><path d="M332,14.2v-3c0-3.1-3.1-6-6-6h-8c-3.9,0-7,2.9-7,6v21c0,2.9,3.4,6,7,6h8c2.9,0,6-3.2,6-6v-7l-10,4.1v-5.1l15-6.2v14.2
	c0,6.3-4.9,11-11.2,11h-8.1c-6.3,0-11.7-4.7-11.7-11l0-21c0-6.3,5.7-11,12-11h8c6.3,0,11,4.7,11,11v3H332z" class="style0"/><path d="M371,11.2v32h-5v-32c0-4.1-2.2-6-6-6h-15v38h-5v-43h20C366.7,0.2,371,4.2,371,11.2z" class="style0"/><path d="M399,13.2v-2c0-3.1-3.1-6-6-6h-9c-2.8,0-6,3.2-6,6c0,0,0,2.7,0,6.7c0,0.5,0.1,0.6,0.2,0.6c0.1,0.1,0.2,0.2,0.4,0.2
	c0.2,0,0.4,0.1,0.6,0l8.3-1.5c0,0,4.7-1,5.4-1c6.1,0,11.5,5.4,11.5,11.7v3.9c0,6.3-5.3,11.4-11.5,11.4h-9c-6.3,0-11-5.3-11-11.6
	v-0.4h5v0.4c0,3.1,3.3,6.6,6,6.6h9c2.4,0,6-3.5,6-7v-3c0-3.3-2.4-6.9-5-6.9c-0.4,0-5.6,1.1-5.6,1.1c-0.8,0.2-4.9,1-5.8,1.1
	c-2.3,0.4-4.3,0.6-5.6,0.4c-2.1-0.4-4-2.3-4-6c0-4,0-6.7,0-6.7c0-6.3,4.7-11,11-11h10c6,0,10,5,10,11v2H399z" class="style0"/></svg>
