<svg xmlns="http://www.w3.org/2000/svg" viewBox="0 282.8 612 66.2" width="955" height="105"><style>path{fill:#fff;}</style><path d="M60.7 325.9v5.6c0 9.7-7.9 17.5-17.5 17.5H12l0-19.7l-2.8 0.8l-2.4-13l5.2-1.5l0-19l-11.5 0.1L0 282.9h12h21.5 c9.7 0 17.5 7.8 17.5 17.5v7.3c0 0.9 0 1.7-0.2 2.5C56.7 313.1 60.7 319.1 60.7 325.9z M34.4 310.4c1.7-0.4 2.9-2 2.9-2.5v-7.4 c0-2.1-1.7-3.7-3.7-3.7h-7.6v15.7L34.4 310.4z M46.8 325.9c0-1.8-1.3-3.3-3.1-3.6l-17.8 4.3v9.2h17.2c2 0 3.6-1.7 3.6-3.7V325.9z"/><path d="M76.9 282.8V349H63.1v-66.2H76.9z"/><path d="M127 300.3V349h-13.9v-24.5l-19.7 5.4V349H79.5v-48.6c0-9.7 7.8-17.5 17.5-17.5h12.5C119.2 282.8 127 290.6 127 300.3z M113.1 300.3c0-2-1.7-3.6-3.6-3.6H97c-2 0-3.6 1.7-3.6 3.6v15.2l19.7-5.3V300.3z"/><path d="M177.1 300.3V349h-13.8v-48.6c0-2-1.5-3.7-3.5-3.7h-16.5V349h-13.8v-66.2h30.3C169.2 282.8 177.1 290.7 177.1 300.3z"/><path d="M213.2 305.1v-4.7c0-2.1-1.7-3.7-3.6-3.7h-12.3c-2.2 0-3.9 1.7-3.9 3.7v31.1c0 2.1 1.7 3.7 3.9 3.7h12.3 c2 0 3.6-1.7 3.6-3.7v-6.8h13.7v6.8c0 9.7-7.7 17.5-17.3 17.5h-12.3c-9.7 0-17.5-7.8-17.5-17.5v-31.1c0-9.7 7.8-17.5 17.5-17.5 h12.3c9.6 0 17.3 7.8 17.3 17.5v4.7H213.2z"/><path d="M276.8 300.3V349H263v-24.5l-19.7 5.4V349h-13.9v-48.6c0-9.7 7.8-17.5 17.5-17.5h12.5C269 282.8 276.8 290.6 276.8 300.3z M263 300.3c0-2-1.7-3.6-3.6-3.6h-12.5c-2 0-3.6 1.7-3.6 3.6v15.2l19.7-5.3V300.3z"/><path d="M346.6 300.2v31.4c0 9.5-7.7 17.3-17.5 17.3h-29.9h-3.7l-0.8-13.8l4.4 0.1l0.2-38.3l-11.3 0l-1-14.1h12.1h29.9 C338.8 282.8 346.6 290.6 346.6 300.2z M332.8 300.2c0-1.9-1.7-3.5-3.7-3.5H313v38.5h16.1c2.1 0 3.7-1.7 3.7-3.5V300.2z"/><path d="M367.1 335.1h23V349h-23c-9.7 0-17.5-7.8-17.5-17.5v-31.2c0-9.6 7.7-17.4 17.5-17.4h22.9v13.7h-22.9 c-2.1 0-3.7 1.7-3.7 3.7v14.1l20.3-5.4v14.3l-20.3 5.3v2.9C363.4 333.4 365 335.1 367.1 335.1z"/><path d="M426.5 303v-2.6c0-2-1.7-3.5-3.6-3.6h-13.6c-2.1 0-3.9 1.7-3.9 3.6c0 0 0 3.7 0 9.8c0 0.8 0.2 1.2 0.3 1.3 c0.1 0.1 0.3 0.1 0.7 0.1c0.2 0 0.6 0 0.9-0.1l12.2-2.9c0 0 2.1-0.4 3.2-0.4c9.4 0 17.5 7.7 17.5 17.4v6c0 9.7-7.9 17.5-17.5 17.5 h-13.6c-9.7 0-17.5-7.8-17.5-17.5V331h13.8v0.6c0 2 1.8 3.7 3.7 3.7h13.6c2 0 3.7-1.8 3.7-3.7v-6c0-2-1.4-3.3-3.2-3.7 c-0.6-0.1-12.8 3.2-12.8 3.2c-1.3 0.3-2.6 0.4-4 0.4c-3.4 0-6.6-1-9.2-3.2c-3.6-2.8-5.7-7.2-5.7-12.1c0-6.1 0-9.7 0-9.7 c0-9.7 7.9-17.6 17.6-17.6h14.6c9.3 0 16.4 8.3 16.4 17.5v2.6H426.5z"/><path d="M457.1 282.8V349h-13.8v-66.2H457.1z"/><path d="M493.5 305v-4.7c0-2.1-1.7-3.7-3.7-3.7h-12.3c-2 0-3.6 1.7-3.6 3.7v31.3c0 2 1.7 3.6 3.6 3.6h12.3c2.1 0 3.7-1.4 3.7-3.4 v-3.6l-9.9 2.4v-14.2l23.7-6v21.3c0 9.6-7.9 17.3-17.5 17.3h-12.3c-9.6 0-17.3-7.8-17.3-17.4v-31.3c0-9.6 7.7-17.4 17.3-17.4h12.3 c9.6 0 17.5 7.8 17.5 17.4v4.6L493.5 305z"/><path d="M557.9 300.3V349h-13.8v-48.6c0-2-1.5-3.7-3.5-3.7H524V349h-13.8v-66.2h30.3C549.9 282.8 557.9 290.7 557.9 300.3z"/><path d="M595.7 303v-2.6c0-2-1.7-3.5-3.6-3.6h-13.6c-2.1 0-3.9 1.7-3.9 3.6c0 0 0 3.7 0 9.8c0 0.8 0.2 1.2 0.3 1.3 c0.1 0.1 0.3 0.1 0.7 0.1c0.2 0 0.6 0 0.9-0.1l12.2-2.9c0 0 2.1-0.4 3.2-0.4c9.4 0 19.1 7.7 19.1 17.4v6c0 9.7-9.5 17.5-19.1 17.5 h-13.6c-9.7 0-17.5-7.8-17.5-17.5V331h13.8v0.6c0 2 1.8 3.7 3.7 3.7H592c2 0 3.8-1.8 3.8-3.7v-6c0-2-1.4-3.3-3.2-3.7 c-0.6-0.1-12.8 3.2-12.8 3.2c-1.3 0.3-2.6 0.4-4 0.4c-3.4 0-6.6-1-9.2-3.2c-3.6-2.8-5.7-7.2-5.7-12.1c0-6.1 0-9.7 0-9.7 c0-9.7 7.9-17.6 17.6-17.6h14.6c9.3 0 18 8.3 18 17.5v2.6H595.7z"/></svg>