<svg xmlns="http://www.w3.org/2000/svg" viewBox="0 43 955 35" width="955" height="35"><rect x="18.2" y="56.8" fill="#FFFFFF" width="415.4" height="4.9"/><rect x="520.9" y="56.8" fill="#FFFFFF" width="415.9" height="4.9"/><circle fill="#FFFFFF" cx="9.7" cy="59.8" r="9.7"/><circle fill="#FFFFFF" cx="945.3" cy="59.3" r="9.7"/><path fill="#FFFFFF" d="M463.4,76.6h-12.1l3.3-23.6h-9l1.4-9.5h29.9l-1.4,9.5h-8.9L463.4,76.6z"/><path fill="#FFFFFF" d="M511,57.9c0,11.6-8.7,19.3-20.3,19.3c-9.7,0-15.6-5.4-15.6-14.9c0-11.5,8.7-19.3,20.3-19.3C505,43,511,48.4,511,57.9z M498.9,58.6c0-4.1-1.5-6.1-4.7-6.1c-4.5,0-6.8,4-6.8,9.2c0,4.1,1.5,6.2,4.7,6.2C496.5,67.8,498.9,63.8,498.9,58.6z"/></svg>