<svg xmlns="http://www.w3.org/2000/svg" viewBox="0 282.8 324.9 50.7" width="955" height="165">
<path fill="#FFFFFF" d="M5.5 292.9H4.1l0.7-0.7l-0.1-0.1l-0.1-0.4l-1.2 1.2H1.7l3.2-3.2l-0.4-0.3L1 292.9H0v-0.8l3.9-3.9l-0.1-0.5 L0 291.4v-1.8l3.6-3.6l-0.3-0.3v-0.1L0 289v-1.8l3-3v-0.1l0.1 0.1l0.6-0.6l-0.3-0.3L0 286.6v-1.8l2-2h2.1l0.1 0.1l0.1-0.1h2.1 l0.2 0.1l0.1-0.1h2.1l0.2 0.1l0.1-0.1h2.1l0.1 0.1l0.2-0.1h1.8l-0.4 0.4v0.1l-0.1-0.1l-0.6 0.6l0.3 0.3l1.4-1.4H16l-2.4 2.4 l0.1 0.5l3-3h1.8l-4.8 4.8l0.3 0.3l5-5h1.2v0.6l-5.7 5.8l0.1 0.5l-0.3-0.3l-0.6 0.6l0.3 0.3l6.2-6.2v1.8l-5.3 5.3v0.1l0.1 0.5 l5.1-5.2v1.8l-4.5 4.5h-1.4l1.4 1.4l0.4 1.7l-3.1-3.2h-1.2l4.6 4.6l0.4 1.7l-6.3-6.3H9.3l7.8 7.8l0.4 1.7L8 292.9H6.8l10.9 10.9 l0.4 1.7L5.5 292.9z M0 282.8h1.4L0 284.2V282.8z M4.5 284.5L4 285.1l0.3 0.3l0.6-0.6L4.5 284.5z M4.2 287.8l0.6-0.6L4.5 287 L4 287.6L4.2 287.8z M5.7 283.3l-0.6 0.6l0.4 0.3l0.6-0.6L5.7 283.3z M5.7 285.8l-0.6 0.6l0.4 0.3L6 286L5.7 285.8z M5.7 288.2 l-0.6 0.6l0.4 0.3l0.6-0.6L5.7 288.2z M5.7 290.7l-0.6 0.5l0.4 0.4l0.6-0.6L5.7 290.7z M18.5 307l0.4 1.7L5.5 295.3l-0.4-1.7 L18.5 307z M19.2 310.2l0.4 1.7L6.2 298.4l-0.4-1.7L19.2 310.2z M6.9 284.5l-0.6 0.6l0.4 0.3l0.6-0.6L6.9 284.5z M6.9 287l-0.6 0.6 l0.4 0.3l0.6-0.6L6.9 287z M6.9 289.4L6.3 290l0.4 0.3l0.6-0.6L6.9 289.4z M6.9 291.8l-0.6 0.6l0.4 0.4l0.6-0.6L6.9 291.8z M19.9 313.3l0.4 1.7L6.9 301.6l-0.4-1.7L19.9 313.3z M20.7 316.4l0.4 1.7L7.6 304.8L7.3 303L20.7 316.4z M8.1 283.3l-0.6 0.6 l0.4 0.3l0.6-0.6L8.1 283.3z M8.1 285.8l-0.6 0.6l0.4 0.3l0.6-0.6L8.1 285.8z M8.1 288.2l-0.6 0.6l0.4 0.3l0.6-0.6L8.1 288.2z M8.1 290.7l-0.6 0.5l0.4 0.4l0.6-0.6L8.1 290.7z M37.8 314.9l-7.3 7.3l-4.7 10.9H14.2l-0.1-0.1l-0.4-1.7l1.3 1.3l0.3-0.9l-1.9-1.9 l-0.4-1.7l2.7 2.7l0.4-0.8l-3.5-3.5l-0.4-1.7l4.2 4.2l0.4-0.8l-4.9-4.8l-0.4-1.7l5.6 5.6l0.4-0.8l-6.3-6.3l-0.4-1.7l7.1 7.1 l0.4-0.8l-7.8-7.8l-0.4-1.7l8.5 8.5l0.4-0.8l-9.2-9.2l-0.4-1.7l10 9.9l0.3-0.8L9.1 311l-0.4-1.7l11.4 11.4l0.3-0.8L8.4 307.9 L8 306.2l12.9 12.9l9.4-21.9l5.5 12.8l-0.2 0.6l0.3-0.4l0.6 1.3l-2.2 2.2l-0.5 1.1l3-2.9l0.5 1.2l-4.8 4.8l-0.5 1.1l5.5-5.5 L37.8 314.9z M9.4 284.5l-0.6 0.6l0.4 0.3l0.6-0.6L9.4 284.5z M9.4 287l-0.6 0.6l0.4 0.3l0.6-0.6L9.4 287z M9.4 289.4L8.8 290 l0.4 0.3l0.6-0.6L9.4 289.4z M9.4 291.8l-0.6 0.6l0.4 0.4l0.6-0.6L9.4 291.8z M10.6 283.3l-0.6 0.6l0.4 0.3l0.5-0.6L10.6 283.3z M10.6 285.8l-0.6 0.6l0.4 0.3l0.5-0.6L10.6 285.8z M10.6 288.2l-0.6 0.6l0.4 0.3l0.5-0.6L10.6 288.2z M10.6 290.7l-0.6 0.5 l0.4 0.4l0.5-0.6L10.6 290.7z M11.8 284.5l-0.6 0.6l0.3 0.3l0.6-0.6L11.8 284.5z M11.8 287l-0.6 0.6l0.3 0.3l0.6-0.6L11.8 287z M11.8 289.4l-0.6 0.6l0.3 0.3l0.6-0.6L11.8 289.4z M11.8 291.8l-0.6 0.6l0.3 0.4l0.6-0.6L11.8 291.8z M13 285.8l-0.6 0.6l0.3 0.3 l0.6-0.6L13 285.8z M13 288.2l-0.6 0.6l0.3 0.3l0.6-0.6L13 288.2z M13 290.7l-0.6 0.5l0.3 0.4l0.6-0.6L13 290.7z M14.3 291.8 l-0.6 0.6l0.3 0.4l0.6-0.6L14.3 291.8z M20.2 289v1.8l-2.1 2.1h-1.8L20.2 289z M20.2 291.4v1.4h-1.4L20.2 291.4z M38 315.3l0.5 1.3 l-7.6 7.6l-0.6-1.2L38 315.3z M38.7 317.1l0.6 1.2l-7.7 7.7l-0.6-1.3L38.7 317.1z M39.5 318.8l0.2 0.4l8 8l-0.2 1.1l-6.8-6.8 l0.1 0.3l-0.5 0.5l0.3 0.3l0.4-0.4l0.5 1.2v0.1l5.8 5.8l-0.2 1.1l-4.5-4.6l0.4 1.2l-0.2 0.2l0.3 0.4l0.1-0.1l0.2 0.4l3.5 3.5 l-0.2 1.1l-2.3-2.2l0.1 0.2l-0.5 0.5l0.3 0.4l0.4-0.4l0.6 1.3l1.2 1.2h-1.8l0.2-0.3l-0.3-0.3l-0.6 0.6h-1.8l0.2-0.3l-0.3-0.3 l-0.6 0.6h-1.8l0.2-0.3l-0.3-0.3l-0.6 0.6h-1.8l0.3-0.3l-0.4-0.3l-0.6 0.6h-1.8l1.6-1.6l0.2-0.8l-2 2l-0.6-1.3l3.5-3.5l-0.3-0.3 l0.1-0.1l-3.5 3.5l-0.5-1.2l4.5-4.5l0.1-0.6l0.2 0.2l0.5-0.6l-0.3-0.3l-5.3 5.3l-0.5-1.2l6.1-6.2l-0.1-0.1l0.1-0.6l-6.4 6.4 l-0.5-1.3l7.4-7.4l0.1-0.2v0.1L39.5 318.8z M36.9 331.1l0.6-0.6l-0.4-0.4l-0.6 0.6L36.9 331.1z M38.2 327.4l0.5-0.6l-0.3-0.4 l-0.6 0.6L38.2 327.4z M38.2 329.9l0.5-0.6l-0.3-0.4l-0.6 0.6L38.2 329.9z M38.2 332.3l0.5-0.5l-0.3-0.4l-0.6 0.6L38.2 332.3z M39.3 321.3l0.6-0.6l-0.3-0.3L39 321L39.3 321.3z M39.3 323.8l0.6-0.6l-0.3-0.3l-0.6 0.6L39.3 323.8z M39.3 326.2l0.6-0.6 l-0.3-0.4l-0.6 0.6L39.3 326.2z M39.3 328.7l0.6-0.6l-0.3-0.4l-0.6 0.6L39.3 328.7z M39.3 331.1l0.6-0.6l-0.3-0.4l-0.6 0.6 L39.3 331.1z M39.5 317.9l0.3-1l8.4 8.4l-0.3 1L39.5 317.9z M40 315.9l0.2-1.1l8.4 8.4l-0.2 1.1L40 315.9z M40.8 324.1l-0.6 0.6 l0.3 0.3l0.6-0.6L40.8 324.1z M40.8 326.5l-0.6 0.6l0.3 0.4l0.6-0.6L40.8 326.5z M40.8 329l-0.6 0.6l0.3 0.4l0.6-0.6L40.8 329z M40.8 331.4l-0.6 0.6l0.3 0.3l0.6-0.5L40.8 331.4z M60.5 292.9h-5.8l0.6 0.6l-0.2 1.1l-1.7-1.7h-1.1l2.6 2.6l-0.2 1.1l-3.7-3.7 h-1.2l4.6 4.6l-0.3 1.1l-5.6-5.7h-1.2l6.6 6.6l-0.2 1l-7.6-7.6h-5.8v-10.1h20.2V292.9z M40.4 313.9l0.2-1l8.4 8.4l-0.2 1 L40.4 313.9z M40.8 312l0.3-1.1l8.4 8.4l-0.3 1.1L40.8 312z M41.3 309.9l0.2-1l8.4 8.4l-0.2 1L41.3 309.9z M42 325.3l-0.6 0.6 l0.3 0.4l0.6-0.6L42 325.3z M42 327.7l-0.6 0.6l0.3 0.4l0.6-0.6L42 327.7z M42 330.2l-0.6 0.6l0.3 0.4l0.6-0.6L42 330.2z M41.8 308 l0.2-1.1l8.4 8.4l-0.2 1.1L41.8 308z M42.2 306l0.3-1l8.4 8.4l-0.2 1.1L42.2 306z M42.6 304l0.3-1.1l8.4 8.4l-0.3 1.1L42.6 304z M43.3 329l-0.6 0.6l0.3 0.4l0.6-0.6L43.3 329z M43.3 331.4l-0.6 0.6l0.3 0.3l0.6-0.5L43.3 331.4z M43.1 302l0.2-1.1l8.4 8.4 l-0.2 1.1L43.1 302z M43.6 300.1l0.2-1.1l8.4 8.4l-0.2 1L43.6 300.1z M44 298.1l0.3-1.1l8.4 8.4l-0.3 1.1L44 298.1z M44.5 296.1 l0.2-1l8.4 8.4l-0.2 1L44.5 296.1z M44.9 294.1l0.2-1.1l8.4 8.4l-0.2 1.1L44.9 294.1z"/><path fill="#FFFFFF" d="M76.2 282.8l-10.1 10.1h-1.1v-0.7l9.4-9.4H76.2z M72 282.8h1.8l-8.7 8.7v-1.8L72 282.8z M69.6 282.8h1.8 l-6.3 6.3v-1.8L69.6 282.8z M67.1 282.8h1.8l-3.8 3.9v-1.8L67.1 282.8z M65.1 282.8h1.4l-1.4 1.4V282.8z M65.1 323.1h1l10.1 10.1 h-1.3l-9.8-9.8V323.1z M65.1 325.8v-1.3l8.7 8.7h-1.3L65.1 325.8z M65.1 328.2v-1.3l6.3 6.3h-1.3L65.1 328.2z M65.1 330.7v-1.3 l3.8 3.8h-1.3L65.1 330.7z M65.1 333.1v-1.3l1.4 1.4L65.1 333.1L65.1 333.1z M68.6 292.9h-1.8l10.1-10.1h1.8L68.6 292.9z M67.2 323.1h1.3l10.1 10.1h-1.3L67.2 323.1z M100.4 297.9H90.3v-5h-1.6l1.6-1.6v-0.6l-2.2 2.2h-1.8l4-4v-0.6l-4.6 4.6h-1.8 l6.4-6.4v-0.6l-7.1 7.1h-1.8l8.9-8.9v-0.6l-9.5 9.5h-0.6V303h0.6l9.5 9.5v0.6h-0.7L79.5 303h-1.1L88.5 313h-1.3L77.1 303H76L86 313 h-1.3L74.7 303h-1.2L83.6 313h-1.3L72.2 303h-1.2L81.1 313h-0.9v10.1h0.5l9.6 9.6l0.5-0.6l-0.3-0.3l-0.3 0.3v-0.6l-8.4-8.4h1.3 l7.2 7.1l0.5-0.6l-0.3-0.3l-0.3 0.3v-0.6l-6-6h1.3l4.8 4.7l0.5-0.6l-0.3-0.3l-0.3 0.3v-0.6l-3.5-3.5h1.3l2.3 2.3l0.5-0.6l-0.3-0.4 l-0.3 0.3v-0.6l-1.1-1.1h1.1V323l4.9-4.9H97l-5 5h0.6l5-5h1.8l-5 5H95l5-5h0.3v1.5l-3.5 3.5h0.6l2.9-2.9v1.8l-1.1 1.1h0.6l0.4-0.4 v1.9l-0.1-0.1l-0.6 0.6l0.4 0.4l0.3-0.3v1.9l-0.1-0.1l-0.6 0.6l0.4 0.3l0.3-0.3v1.9h-0.1l-0.6 0.6l0.4 0.3l0.3-0.3v1.9h-0.1 l-0.6 0.6l0.4 0.3l0.3-0.3v0.8h-1.1l-0.2-0.1l-0.1 0.1h-2.1l-0.1-0.1l-0.2 0.1h-2.1l-0.1-0.1l-0.2 0.1h-2.1l-0.1-0.1l-0.1 0.1h-2.2 l-10.1-10.1h-1.1l10.1 10.1h-1.3L77 323.1h-1.2L86 333.2h-1.3l-10.1-10.1h-1.2l10.1 10.1h-1.3l-10.1-10.1H71l10.1 10.1h-1.3 l-10.1-10.1h0.4v-11.4l1.3 1.3h1.2l-2.4-2.4v-1.3l3.7 3.7H75l-4.8-4.8v-1.3l6.1 6.1h1.2l-7.3-7.3v-1.3l8.6 8.6h1.2l-9.7-9.7v-10.4 h-0.9l10.1-10.1h1.8l-10.1 10.1h0.6l10.1-10.1h1.8l-10.1 10.1h0.6l10.1-10.1H86l-10.1 10.1h0.6l10.1-10.1h1.8l-10.1 10.1H79 l10.1-10.1h11.3V297.9z M81.9 303h1.3l7.1 7.1v1.3L81.9 303z M84.4 303h1.3l4.6 4.6v1.3L84.4 303z M86.8 303h1.3l2.2 2.2v1.3 L86.8 303z M90.3 303v1l-1-1H90.3z M90.3 322.3v-1.8l2.4-2.4h1.8L90.3 322.3z M90.3 320v-1.8l0.1-0.1h1.8L90.3 320z M91.8 323.3 l-0.6 0.6l0.3 0.4l0.6-0.6L91.8 323.3z M91.8 325.7l-0.6 0.6l0.3 0.4l0.6-0.6L91.8 325.7z M91.8 328.2l-0.6 0.6l0.3 0.3l0.6-0.6 L91.8 328.2z M91.8 330.6l-0.6 0.6l0.3 0.3l0.6-0.6L91.8 330.6z M93 324.5l-0.6 0.6l0.3 0.4l0.6-0.6L93 324.5z M93 326.9l-0.6 0.6 l0.3 0.3l0.6-0.6L93 326.9z M93 329.4l-0.6 0.6l0.3 0.3l0.6-0.6L93 329.4z M93 331.8l-0.6 0.6l0.3 0.3l0.6-0.6L93 331.8z M94.2 323.3l-0.6 0.6l0.3 0.4l0.6-0.6L94.2 323.3z M94.2 325.7l-0.6 0.6l0.3 0.4l0.6-0.6L94.2 325.7z M94.2 328.2l-0.6 0.6L94 329 l0.6-0.6L94.2 328.2z M94.2 330.6l-0.6 0.6l0.3 0.3l0.6-0.6L94.2 330.6z M95.5 324.5l-0.6 0.6l0.3 0.4l0.6-0.6L95.5 324.5z M95.5 326.9l-0.6 0.6l0.3 0.3l0.6-0.6L95.5 326.9z M95.5 329.4l-0.6 0.6l0.3 0.3l0.6-0.6L95.5 329.4z M95.5 331.8l-0.6 0.6 l0.3 0.3l0.6-0.6L95.5 331.8z M96.7 323.3l-0.6 0.6l0.3 0.4l0.6-0.6L96.7 323.3z M96.7 325.7l-0.6 0.6l0.3 0.4l0.6-0.6L96.7 325.7z M96.7 328.2l-0.6 0.6l0.3 0.3l0.6-0.6L96.7 328.2z M96.7 330.6l-0.6 0.6l0.3 0.3l0.6-0.6L96.7 330.6z M97.9 324.5l-0.6 0.6 l0.3 0.4l0.6-0.6L97.9 324.5z M97.9 326.9l-0.6 0.6l0.3 0.3l0.6-0.6L97.9 326.9z M97.9 329.4l-0.6 0.6l0.3 0.3l0.6-0.6L97.9 329.4z M97.9 331.8l-0.6 0.6l0.3 0.3l0.6-0.6L97.9 331.8z M99.1 323.3l-0.5 0.6l0.3 0.4l0.6-0.6L99.1 323.3z M99.1 325.7l-0.5 0.6 l0.3 0.4l0.6-0.6L99.1 325.7z M99.1 328.2l-0.5 0.6l0.3 0.3l0.6-0.6L99.1 328.2z M99.1 330.6l-0.5 0.6l0.3 0.3l0.6-0.6L99.1 330.6z "/><path fill="#FFFFFF" d="M109.9 292.9h-0.3l-4.8-4.8v-1.3l5 5v-0.1l0.5-0.5l-0.4-0.4l-0.1 0.2v-0.4l-5-5v-1.3l5 5v-0.1l0.5-0.5 l-0.4-0.3l-0.1 0.1v-0.4l-5-5v-0.4h0.9l4.2 4.2v-0.1l0.5-0.5l-0.4-0.3l-0.1 0.1v-0.4l-3-3h1.3l1.7 1.7v-0.1l0.5-0.5l-0.4-0.3 l-0.1 0.1v-0.3l-0.6-0.6h1.6l-0.1 0.1l0.4 0.3l0.4-0.4h1.8l-0.1 0.1l0.4 0.3l0.4-0.4h1.8l-0.1 0.1l0.4 0.3l0.4-0.4h1.8l-0.1 0.1 l0.3 0.3l0.5-0.4h1.5l4.7 4.7v1.3l-5.2-5.2l-0.6 0.6l0.3 0.3l0.4-0.4v0.8l5 5v1.3l-5.2-5.2l-0.6 0.6l0.3 0.3l0.4-0.4v0.9l5 5v0.5 h-0.8l-4.4-4.4l-0.6 0.6l0.3 0.3l0.4-0.4v0.9l3.1 3.1h-1.3l-1.9-2l-0.6 0.6l0.3 0.4l0.4-0.4v0.9l0.6 0.6H120v0.3l-10.1 10.1v-1.8 l9-9l-0.3-0.4l-0.6 0.6l0.2 0.2h-0.4l-7.9 7.9V299l6.6-6.6l-0.3-0.4l-0.6 0.6l0.2 0.2h-0.4l-5.5 5.5v-1.8l4.2-4.1l-0.4-0.4 l-0.6 0.6l0.2 0.2H113l-3.1 3.1v-1.8l1.7-1.7l-0.4-0.4l-0.6 0.6l0.2 0.2h-0.4l-0.6 0.6V292.9z M108.5 292.9h-1.3l-2.3-2.3v-1.3 L108.5 292.9z M104.9 291.7l1.2 1.2h-1.2V291.7z M134.4 318.1h1.3l4.5 4.5v1.6l-0.4 0.4l0.3 0.3l0.1-0.1v1.8l-0.4 0.4l0.3 0.3 l0.1-0.1v1.8l-0.4 0.4l0.3 0.4l0.1-0.1v1.8l-0.4 0.4l0.3 0.4l0.1-0.1v1.1h-1.1l0.3-0.3l-0.3-0.4l-0.6 0.6l0.1 0.1h-1.9l0.4-0.3 l-0.4-0.4l-0.6 0.6l0.1 0.1h-1.9l0.4-0.3l-0.4-0.4l-0.6 0.6l0.1 0.1h-1.9l0.3-0.3l-0.4-0.4l-0.5 0.6v0.1h-26.4v-10.1h5.3l9.8-9.8 v1.8l-8 8h0.6l7.4-7.4v1.8l-5.6 5.6h0.6l5-5v1.8l-3.2 3.2h0.6l2.5-2.5v1.8l-0.7 0.7h0.6l0.1-0.1v0.1h10.1v-0.9l0.9 0.9h0.5 l-0.2 0.3l0.3 0.3l0.6-0.6l-2-2v-1.3l3.3 3.3h0.5l-0.3 0.3l0.4 0.3l0.6-0.6l-4.5-4.4v-0.6h0.6l5 5h0.6l-0.3 0.3l0.4 0.3l0.6-0.6 l-5.1-5h1.3l5 5h0.6l-0.3 0.3l0.3 0.3l0.6-0.6L134.4 318.1z M120 293.8v1.8l-10.1 10.1v-1.8L120 293.8z M120 296.3v1.8l-10.1 10.1 v-1.8L120 296.3z M120 298.7v1.8l-10.1 10.1v-1.8L120 298.7z M120 301.1v1.8L109.9 313v-1.8L120 301.1z M120 303.5v1.8l-10.1 10.1 v-1.8L120 303.5z M120 306v1.8l-10.1 10.1v-1.8L120 306z M120 308.4v1.8l-10.1 10.1v-1.8L120 308.4z M109.9 322.8V321l10.1-10.1 v1.8L109.9 322.8z M111.3 284.8l-0.6 0.6l0.4 0.3l0.6-0.6L111.3 284.8z M111.3 287.3l-0.6 0.6l0.4 0.3l0.6-0.6L111.3 287.3z M111.3 289.7l-0.6 0.5l0.4 0.4l0.6-0.6L111.3 289.7z M112.5 283.6l-0.6 0.6l0.4 0.3l0.6-0.6L112.5 283.6z M112.5 286l-0.6 0.6 l0.4 0.3l0.6-0.6L112.5 286z M112.5 288.5l-0.6 0.6l0.4 0.3l0.6-0.6L112.5 288.5z M112.5 290.9l-0.6 0.6l0.4 0.4l0.6-0.6 L112.5 290.9z M113.8 284.8l-0.6 0.6l0.4 0.3l0.6-0.6L113.8 284.8z M113.8 287.3l-0.6 0.6l0.4 0.3l0.6-0.6L113.8 287.3z M113.8 289.7l-0.6 0.5l0.4 0.4l0.6-0.6L113.8 289.7z M115 283.6l-0.6 0.6l0.4 0.3l0.6-0.6L115 283.6z M115 286l-0.6 0.6l0.4 0.3 l0.6-0.6L115 286z M115 288.5l-0.6 0.6l0.4 0.3l0.6-0.6L115 288.5z M115 290.9l-0.6 0.6l0.4 0.4l0.6-0.6L115 290.9z M116.2 284.8 l-0.6 0.6l0.4 0.3l0.5-0.6L116.2 284.8z M116.2 287.3l-0.6 0.6l0.4 0.3l0.5-0.6L116.2 287.3z M116.2 289.7l-0.6 0.5l0.4 0.4 l0.5-0.6L116.2 289.7z M117.4 283.6l-0.6 0.6l0.3 0.3l0.6-0.6L117.4 283.6z M117.4 286l-0.6 0.6l0.3 0.3l0.6-0.6L117.4 286z M117.4 288.5l-0.6 0.6l0.3 0.3l0.6-0.6L117.4 288.5z M117.4 290.9l-0.6 0.6l0.3 0.4l0.6-0.6L117.4 290.9z M118.7 284.8l-0.6 0.6 l0.3 0.3l0.6-0.6L118.7 284.8z M118.7 287.3l-0.6 0.6l0.3 0.3l0.6-0.6L118.7 287.3z M118.7 289.7l-0.6 0.5l0.3 0.4l0.6-0.6 L118.7 289.7z M125.1 285v1.3l-3.5-3.5h1.3L125.1 285z M125.1 282.8v1.2l-1.2-1.2H125.1z M130.3 324.9l0.6-0.6l-0.3-0.3l-0.5 0.4 v0.2L130.3 324.9z M130.3 327.4l0.6-0.6l-0.3-0.3l-0.5 0.4v0.2L130.3 327.4z M130.3 329.8l0.6-0.6l-0.3-0.4l-0.5 0.5v0.2 L130.3 329.8z M130.3 332.3l0.6-0.6l-0.3-0.4l-0.5 0.5v0.2L130.3 332.3z M131.5 326.1l0.6-0.6l-0.4-0.3l-0.5 0.6L131.5 326.1z M131.5 328.6l0.6-0.6l-0.4-0.3l-0.5 0.5L131.5 328.6z M131.5 331l0.6-0.6l-0.4-0.4l-0.5 0.6L131.5 331z M132.8 324.9l0.6-0.6 l-0.4-0.3l-0.6 0.6L132.8 324.9z M132.8 327.4l0.6-0.6l-0.4-0.3l-0.6 0.6L132.8 327.4z M132.8 329.8l0.6-0.6l-0.4-0.4l-0.6 0.6 L132.8 329.8z M132.8 332.3l0.6-0.6l-0.4-0.4l-0.6 0.6L132.8 332.3z M134 326.1l0.6-0.6l-0.4-0.3l-0.6 0.6L134 326.1z M134 328.6 l0.6-0.6l-0.4-0.3l-0.6 0.5L134 328.6z M134 331l0.6-0.6l-0.4-0.4l-0.6 0.6L134 331z M135.2 324.9l0.6-0.6l-0.4-0.3l-0.6 0.6 L135.2 324.9z M135.2 327.4l0.6-0.6l-0.4-0.3l-0.6 0.6L135.2 327.4z M135.2 329.8l0.6-0.6l-0.4-0.4l-0.6 0.6L135.2 329.8z M135.2 332.3l0.6-0.6l-0.4-0.4l-0.6 0.6L135.2 332.3z M136.4 326.1l0.6-0.6l-0.4-0.3l-0.6 0.6L136.4 326.1z M136.4 328.6l0.6-0.6 l-0.4-0.3l-0.6 0.5L136.4 328.6z M136.4 331l0.6-0.6l-0.4-0.4l-0.6 0.6L136.4 331z M136.8 318.1h1.3l2.1 2.1v1.3L136.8 318.1z M137.7 324.9l0.5-0.6l-0.3-0.3l-0.6 0.6L137.7 324.9z M137.7 327.4l0.5-0.6l-0.3-0.3l-0.6 0.6L137.7 327.4z M137.7 329.8l0.5-0.6 l-0.3-0.4l-0.6 0.6L137.7 329.8z M137.7 332.3l0.5-0.6l-0.3-0.4l-0.6 0.6L137.7 332.3z M138.8 326.1l0.6-0.6l-0.3-0.3l-0.6 0.6 L138.8 326.1z M138.8 328.6l0.6-0.6l-0.3-0.3l-0.6 0.5L138.8 328.6z M138.8 331l0.6-0.6l-0.3-0.4l-0.6 0.6L138.8 331z M139.2 318.1 h0.9v0.9L139.2 318.1z"/>
<path fill="#FFFFFF" d="M154.8 318.1c0 0.4 0 0.7 0.1 0.9l-7.6 7.6l-0.6-1.1l7.4-7.4h-0.6l-7 7c-0.2-0.4-0.4-0.8-0.6-1.2l5.8-5.8 H151l-5.3 5.3c-0.1-0.2-0.2-0.5-0.2-0.7c0-0.2-0.1-0.4-0.2-0.7l4-4h-0.6l-3.5 3.5l-0.2-1.5l1.9-1.9h-0.6l-1.3 1.4 c0-0.2-0.1-0.5-0.1-0.7s0-0.4 0-0.7v-20.2c0-2.1 0.4-4 1.2-5.9c0.8-1.8 1.9-3.5 3.2-4.8c1.4-1.4 3-2.4 4.8-3.2 c1.8-0.8 3.8-1.2 5.9-1.2v0.3l0.3-0.3h1.8l-2.1 2.1v0.6l2.7-2.7h1.8l-4.5 4.5v0.6l5.1-5.1h1.8l-6.9 6.9v0.6l7.6-7.6h1.8l-9.4 9.4 v0.6l10-10h0.1c0.3 0 0.6 0 0.8 0c0.3 0 0.5 0 0.8 0.1l-10 10h-1.7c-1.4 0-2.6 0.5-3.6 1.5c-1 1-1.5 2.2-1.5 3.6V318.1z M155 319.6 c0.1 0.2 0.2 0.4 0.3 0.6c0.1 0.2 0.2 0.4 0.3 0.6l-7.2 7.1c-0.1-0.1-0.3-0.3-0.4-0.5c-0.1-0.2-0.3-0.3-0.4-0.5L155 319.6z M155.9 321.2c0.1 0.1 0.2 0.3 0.4 0.5c0.1 0.2 0.3 0.3 0.5 0.4l-7.1 7.2l-0.9-0.9L155.9 321.2z M157.1 322.3 c0.2 0.1 0.4 0.2 0.6 0.3c0.2 0.1 0.4 0.2 0.6 0.3l-7.4 7.4c-0.1-0.1-0.3-0.3-0.5-0.4c-0.2-0.1-0.3-0.3-0.5-0.4L157.1 322.3z M169.9 323.1c0.2 0 0.6 0 1.1-0.1l7.6 7.6c-0.4 0.2-0.6 0.4-0.8 0.5L169.9 323.1v0.4l-0.4 0.4l0.4 0.4l0.1-0.1v0.2l7.1 7.1 l-0.9 0.4l-6.3-6.2v0.3l-0.4 0.4l0.4 0.3l0.1-0.1v0.2l5.4 5.4c-0.1 0.1-0.3 0.2-0.4 0.2c-0.1 0-0.3 0.1-0.5 0.2l-4.5-4.5v0.3 l-0.4 0.4l0.4 0.3l0.1-0.1v0.1l3.6 3.6l-1.1 0.2l-2.5-2.5v0.4l-0.4 0.4l0.4 0.3l0.1-0.1v0.1l1.5 1.5c-0.2 0-0.5 0.1-0.6 0.1 c-0.2 0-0.4 0-0.6 0l-0.3-0.3v0.3h-2.2l-0.1-0.1l-0.1 0.1h-2.2l-0.1-0.1l-0.1 0.1h-2.2l-0.1-0.1l-0.1 0.1h-2.2l-0.1-0.1l-0.1 0.1 h-0.4c-0.2 0-0.5 0-0.7 0s-0.4 0-0.7-0.1l1.4-1.3v-0.5l0.2 0.2l0.6-0.6l-0.3-0.3l-2.4 2.4c-0.2 0-0.5-0.1-0.8-0.1 c-0.3 0-0.5-0.1-0.8-0.2l3.5-3.4v-0.5l0.2 0.2l0.6-0.6l-0.3-0.3l-4.5 4.5c-0.2-0.1-0.5-0.2-0.7-0.2c-0.2 0-0.4-0.1-0.7-0.2l5.3-5.3 v-0.5l0.2 0.2l0.6-0.6l-0.3-0.3l-6.3 6.3c-0.4-0.1-0.8-0.3-1.2-0.6l7-7V324l0.2 0.3l0.6-0.6l-0.3-0.4l-7.9 7.9 c-0.2-0.1-0.4-0.2-0.5-0.3c-0.2-0.1-0.3-0.3-0.5-0.4l7.5-7.5c0.2 0 0.6 0.1 1 0.1H169.9z M161 325.1l0.3 0.3l0.6-0.5l-0.3-0.4 L161 325.1z M161.9 327.3l-0.3-0.3l-0.6 0.6l0.3 0.3L161.9 327.3z M161.9 329.7l-0.3-0.3L161 330l0.3 0.3L161.9 329.7z M161.9 332.2l-0.3-0.3l-0.6 0.6l0.3 0.3L161.9 332.2z M162.2 292.9l9.9-9.9c0.2 0 0.5 0.1 0.7 0.1c0.2 0 0.5 0.1 0.7 0.1l-9.6 9.6 H162.2z M162.2 323.9l0.3 0.4l0.6-0.6l-0.3-0.4L162.2 323.9z M163.1 326.1l-0.3-0.3l-0.6 0.6l0.3 0.3L163.1 326.1z M163.1 328.5 l-0.3-0.3l-0.6 0.6l0.3 0.3L163.1 328.5z M163.1 331l-0.3-0.3l-0.6 0.6l0.3 0.3L163.1 331z M164.3 324.9l-0.3-0.4l-0.6 0.6l0.3 0.3 L164.3 324.9z M164.3 327.3L164 327l-0.6 0.6l0.3 0.3L164.3 327.3z M164.3 329.7l-0.3-0.3l-0.6 0.6l0.3 0.3L164.3 329.7z M164.3 332.2l-0.3-0.3l-0.6 0.6l0.3 0.3L164.3 332.2z M164.7 292.9l9.4-9.5c0.6 0.1 1 0.3 1.4 0.5l-9 9H164.7z M165.5 323.7 l-0.3-0.4l-0.6 0.6l0.3 0.4L165.5 323.7z M165.5 326.1l-0.3-0.3l-0.6 0.6l0.3 0.3L165.5 326.1z M165.5 328.5l-0.3-0.3l-0.6 0.6 l0.3 0.3L165.5 328.5z M165.5 331l-0.3-0.3l-0.6 0.6l0.3 0.3L165.5 331z M166.8 324.9l-0.4-0.4l-0.5 0.6l0.3 0.3L166.8 324.9z M166.8 327.3l-0.4-0.3l-0.5 0.6l0.3 0.3L166.8 327.3z M166.8 329.7l-0.4-0.3l-0.5 0.6l0.3 0.3L166.8 329.7z M166.8 332.2l-0.4-0.3 l-0.5 0.6l0.3 0.3L166.8 332.2z M168 323.7l-0.4-0.4l-0.6 0.6l0.4 0.4L168 323.7z M168 326.1l-0.4-0.3l-0.6 0.6l0.4 0.3L168 326.1z M168 328.5l-0.4-0.3l-0.6 0.6l0.4 0.3L168 328.5z M168 331l-0.4-0.3l-0.6 0.6l0.4 0.3L168 331z M167.1 292.9l8.8-8.9 c0.2 0.1 0.5 0.2 0.6 0.3c0.2 0.1 0.4 0.2 0.6 0.3l-8.3 8.3H167.1z M169.2 324.9l-0.4-0.4l-0.6 0.6l0.4 0.3L169.2 324.9z M169.2 327.3l-0.4-0.3l-0.6 0.6l0.4 0.3L169.2 327.3z M169.2 329.7l-0.4-0.3l-0.6 0.6l0.4 0.3L169.2 329.7z M169.2 332.2l-0.4-0.3 l-0.6 0.6l0.4 0.3L169.2 332.2z M169.5 292.9l8.1-8c0.2 0.1 0.4 0.2 0.5 0.3c0.2 0.1 0.3 0.3 0.5 0.4l-7.5 7.4 c-0.5-0.1-0.9-0.1-1.2-0.1H169.5z M172.8 293.8c-0.2-0.1-0.4-0.3-0.5-0.4c-0.2-0.1-0.4-0.2-0.6-0.3l7.3-7.3 c0.2 0.1 0.4 0.3 0.5 0.4s0.3 0.3 0.5 0.4L172.8 293.8z M171.9 322.7c0.3 0 0.6-0.2 0.9-0.4l7.2 7.2c-0.2 0.1-0.4 0.3-0.7 0.6 L171.9 322.7z M174 295c-0.2-0.3-0.5-0.6-0.9-0.9l7.1-7.1c0.2 0.1 0.4 0.3 0.5 0.4c0.1 0.1 0.3 0.3 0.4 0.4L174 295z M173.4 321.8 c0.3-0.3 0.5-0.5 0.6-0.6l7.2 7.1l-0.6 0.6L173.4 321.8z M174.8 296.7c-0.1-0.2-0.2-0.5-0.3-0.6c-0.1-0.2-0.2-0.4-0.3-0.6l7.2-7.2 c0.1 0.2 0.3 0.4 0.4 0.5c0.1 0.1 0.3 0.3 0.4 0.5L174.8 296.7z M174.4 320.4c0.1-0.3 0.3-0.6 0.4-0.9l7.5 7.4 c-0.1 0.1-0.2 0.3-0.3 0.4c-0.1 0.1-0.2 0.2-0.3 0.3L174.4 320.4z M185 296.9c0 0.2 0.1 0.5 0.1 1v2.5H175v-2.5 c0-0.3 0-0.5-0.1-0.6l7.6-7.6c0.1 0.2 0.3 0.4 0.4 0.5c0.1 0.2 0.2 0.3 0.3 0.5l-7.2 7.2h0.6l6.8-6.8c0.1 0.2 0.2 0.4 0.3 0.6 c0.1 0.2 0.2 0.4 0.3 0.6l-5.5 5.5h0.6l5.1-5c0.1 0.2 0.2 0.5 0.2 0.7c0 0.2 0.1 0.4 0.2 0.7l-3.7 3.7h0.6l3.2-3.2 c0.1 0.4 0.2 0.9 0.3 1.6l-1.7 1.6h0.6L185 296.9z M175.8 315.6l8.2 8.1c-0.1 0.2-0.2 0.6-0.4 0.9l-8.6-8.6v-0.5H175.8z M175 317.2 l8.2 8.1c-0.1 0.1-0.2 0.3-0.3 0.4c-0.1 0.1-0.2 0.3-0.3 0.4l-7.7-7.8v-0.4V317.2z M178.2 315.6l6.3 6.3c-0.1 0.4-0.2 0.7-0.3 1 l-7.3-7.3H178.2z M180.6 315.6l4.2 4.3c0 0.2 0 0.6-0.1 1.1l-5.4-5.4H180.6z M183.1 315.6l1.9 1.9v0.6v0.7l-3.2-3.2H183.1z M184.2 315.6h0.8v0.8L184.2 315.6z"/><path fill="#FFFFFF" d="M199.9 307.7l-10.1-10.1c0-0.2 0-0.4 0-0.6c0-0.2 0-0.4 0.1-0.6l10 10V307.7z M199.9 310.2l-10.1-10.1v-1.3 l10.1 10.1V310.2z M199.9 312.6l-10.1-10.1v-1.3l10.1 10.1V312.6z M199.9 315l-10.1-10.1v-1.3l10.1 10.1V315z M199.9 317.4 l-10.1-10.1v-1.3l10.1 10.1V317.4z M215.1 323.1l7.8 7.8l-0.9 0.4l-7.1-7.1v1.2l6.3 6.3c-0.1 0.1-0.3 0.2-0.4 0.2 c-0.1 0-0.3 0.1-0.5 0.2l-5.4-5.4v1.2l4.6 4.5c-0.2 0.1-0.6 0.2-1.1 0.3l-3.5-3.5v1.1l2.6 2.7c-0.2 0-0.4 0.1-0.5 0.1 c-0.2 0-0.3 0-0.5 0.1l-1.5-1.5v1.2l0.4 0.4H215h-10.1c-2.1 0-4.1-0.4-5.9-1.2c-1.8-0.8-3.4-1.9-4.8-3.2c-1.4-1.4-2.4-3-3.2-4.8 c-0.8-1.8-1.2-3.8-1.2-5.9h0.9l-0.9-0.9v-1.3l2.2 2.2h1.2l-3.4-3.4v-1.3l4.7 4.7h1.2l-5.8-5.8V311l7.1 7.1h1.2l-8.3-8.3v-1.3 l9.6 9.6h0.5c0 1.4 0.5 2.6 1.5 3.6c1 1 2.2 1.5 3.6 1.5H215.1L215.1 323.1z M199.9 305.3l-9.9-9.9l0.2-1.1l9.6 9.6V305.3z M199.9 302.8l-9.4-9.4c0.1-0.2 0.2-0.4 0.2-0.5c0-0.1 0.1-0.3 0.2-0.5l9.1 9.1V302.8z M199.9 300.4l-8.7-8.7l0.4-0.9l8.3 8.3 V300.4z M199.9 298l-7.8-7.9c0.1-0.2 0.3-0.5 0.5-0.8l7.5 7.5C199.9 297.3 199.9 297.6 199.9 298L199.9 298z M200.7 295.1 c-0.1 0.1-0.2 0.2-0.3 0.4c-0.1 0.1-0.1 0.3-0.2 0.4l-7.3-7.3c0.1-0.1 0.2-0.2 0.3-0.4c0.1-0.1 0.2-0.3 0.3-0.4L200.7 295.1z M202 293.9c-0.2 0.1-0.4 0.3-0.7 0.6l-7.1-7.1l0.6-0.6L202 293.9z M203.6 293.1c-0.4 0.1-0.7 0.2-0.9 0.4l-7.3-7.3 c0.1-0.1 0.2-0.2 0.4-0.3c0.1-0.1 0.3-0.2 0.4-0.3L203.6 293.1z M204.5 292.9l-7.7-7.7c0.1-0.1 0.4-0.3 0.8-0.5l7.3 7.3l0.6-0.6 l-0.4-0.3l-0.3 0.3v-0.6l-6.6-6.5c0.1-0.1 0.3-0.2 0.5-0.2c0.2 0 0.3-0.1 0.5-0.2l5.7 5.7l0.6-0.6l-0.4-0.3l-0.3 0.3v-0.6l-4.8-4.8 c0.2-0.1 0.4-0.2 0.5-0.2c0.2 0 0.3-0.1 0.5-0.1l3.9 3.9l0.6-0.6l-0.4-0.4l-0.3 0.4V286l-2.9-2.9c0.2 0 0.4-0.1 0.5-0.1 c0.2 0 0.4-0.1 0.6-0.1l1.8 1.9l0.6-0.6l-0.4-0.4l-0.3 0.4v-0.6l-0.7-0.7h0.7h1.4l-0.4 0.4l0.4 0.4l0.6-0.6l-0.1-0.1h2.1l-0.4 0.4 l0.4 0.4l0.6-0.6l-0.1-0.1h2l-0.4 0.4l0.4 0.4l0.5-0.6l-0.1-0.1h2l-0.4 0.4l0.3 0.4l0.6-0.6l-0.1-0.1h1h1l-1 1l-0.6 0.6l0.3 0.4 l1.9-1.9c0.2 0 0.5 0.1 0.8 0.1c0.3 0 0.5 0.1 0.8 0.2l-3.1 3.1l-0.6 0.6l0.3 0.4l4-4c0.2 0.1 0.5 0.2 0.7 0.2 c0.2 0 0.4 0.1 0.7 0.2l-5 5l-0.6 0.6l0.3 0.3l5.8-5.8c0.2 0.1 0.5 0.2 0.6 0.3c0.2 0.1 0.4 0.2 0.6 0.3l-6.8 6.8l-0.6 0.6l0.3 0.3 l7.4-7.4c0.2 0.1 0.4 0.2 0.6 0.3c0.2 0.1 0.3 0.2 0.5 0.3l-7.6 7.7c-0.1 0-0.4-0.1-0.6-0.1h-1.2l0.2-0.2l-0.3-0.3l-0.5 0.5h-1.8 l0.1-0.2l-0.3-0.3l-0.5 0.5H209l0.2-0.2l-0.4-0.3l-0.5 0.5h-1.8l0.2-0.2l-0.4-0.3l-0.5 0.5h-1H204.5z M205.8 285.6l0.4 0.4l0.6-0.6 l-0.4-0.4L205.8 285.6z M205.8 288.1l0.4 0.3l0.6-0.6l-0.4-0.3L205.8 288.1z M205.8 290.5l0.4 0.3l0.6-0.6l-0.4-0.3L205.8 290.5z M207.1 284.4l0.4 0.4l0.6-0.6l-0.4-0.4L207.1 284.4z M207.1 286.8l0.4 0.4l0.6-0.6l-0.4-0.4L207.1 286.8z M207.1 289.3l0.4 0.3 l0.6-0.6l-0.4-0.3L207.1 289.3z M207.1 291.7l0.4 0.3l0.6-0.6l-0.4-0.3L207.1 291.7z M208.3 285.6l0.4 0.4l0.6-0.6l-0.4-0.4 L208.3 285.6z M208.3 288.1l0.4 0.3l0.6-0.6l-0.4-0.3L208.3 288.1z M208.3 290.5l0.4 0.3l0.6-0.6l-0.4-0.3L208.3 290.5z M209.5 284.4l0.4 0.4l0.6-0.6l-0.4-0.4L209.5 284.4z M209.5 286.8l0.4 0.4l0.6-0.6l-0.4-0.4L209.5 286.8z M209.5 289.3l0.4 0.3 l0.6-0.6l-0.4-0.3L209.5 289.3z M209.5 291.7l0.4 0.3l0.6-0.6l-0.4-0.3L209.5 291.7z M210.7 285.6l0.4 0.4l0.5-0.6l-0.3-0.4 L210.7 285.6z M210.7 288.1l0.4 0.3l0.5-0.6l-0.3-0.3L210.7 288.1z M210.7 290.5l0.4 0.3l0.5-0.6l-0.3-0.3L210.7 290.5z M212 284.4 l0.3 0.4l0.6-0.6l-0.3-0.4L212 284.4z M212 286.8l0.3 0.4l0.6-0.6l-0.3-0.4L212 286.8z M212 289.3l0.3 0.3l0.6-0.6l-0.3-0.3 L212 289.3z M212 291.7l0.3 0.3l0.6-0.6l-0.3-0.3L212 291.7z M213.2 285.6l0.3 0.4l0.6-0.6l-0.3-0.4L213.2 285.6z M213.2 288.1 l0.3 0.3l0.6-0.6l-0.3-0.3L213.2 288.1z M213.2 290.5l0.3 0.3l0.6-0.6l-0.3-0.3L213.2 290.5z M216.1 323c0.4-0.1 0.7-0.2 1-0.3 l7.3 7.3c-0.1 0.1-0.3 0.2-0.4 0.3c-0.1 0.1-0.3 0.2-0.4 0.3L216.1 323z M217.4 293.5c-0.3-0.2-0.7-0.4-1.3-0.5l7.5-7.5 c0.3 0.2 0.7 0.5 1 0.8L217.4 293.5z M217.8 322.3c0.3-0.2 0.5-0.4 0.7-0.6l7.1 7.1c-0.3 0.3-0.5 0.5-0.7 0.6L217.8 322.3z M218.8 294.6c-0.1-0.1-0.3-0.3-0.4-0.4s-0.3-0.3-0.5-0.4l7.1-7.1c0.2 0.1 0.4 0.3 0.5 0.4s0.3 0.3 0.4 0.4L218.8 294.6z M219 321.1c0.1-0.2 0.3-0.5 0.5-0.9l7.3 7.3c-0.1 0.1-0.2 0.3-0.3 0.4c-0.1 0.1-0.2 0.2-0.3 0.3L219 321.1z M219.7 296.2 c-0.1-0.4-0.3-0.8-0.6-1.2l7.1-7.1c0.3 0.3 0.6 0.7 0.8 1L219.7 296.2z M219.8 319.5c0.1-0.3 0.2-0.7 0.2-1.2l7.8 7.8 c-0.1 0.1-0.2 0.3-0.3 0.4c-0.1 0.1-0.2 0.3-0.3 0.4L219.8 319.5z M230.1 318.1h-0.6l0.6 0.6c0 0.2 0 0.4 0 0.6 c0 0.2-0.1 0.4-0.1 0.6l-1.7-1.8h-1.2l2.7 2.7l-0.2 1.1l-3.8-3.8h-1.2l4.8 4.7c-0.1 0.2-0.2 0.4-0.2 0.5c0 0.1-0.1 0.3-0.1 0.5 l-5.7-5.7h-1.2l6.5 6.5c-0.2 0.4-0.3 0.6-0.4 0.8l-7.3-7.3H220v-20.2c0-0.2 0-0.5 0-0.6c0-0.2-0.1-0.4-0.1-0.6l7.4-7.4 c0.1 0.2 0.3 0.4 0.4 0.5c0.1 0.2 0.2 0.3 0.3 0.5l-7.6 7.6h0.6l7.2-7.3c0.1 0.2 0.2 0.4 0.3 0.6c0.1 0.2 0.2 0.4 0.3 0.6l-6 6h0.6 l5.5-5.6c0.1 0.2 0.2 0.5 0.3 0.7c0.1 0.2 0.2 0.4 0.3 0.7l-4.3 4.2h0.6l3.7-3.7c0.1 0.2 0.2 0.5 0.2 0.8c0 0.3 0.1 0.5 0.1 0.8 l-2.3 2.2h0.6l1.7-1.7c0 0.2 0.1 0.5 0.1 0.8s0 0.6 0 0.9V318.1z"/><path fill="#FFFFFF" d="M285 282.8v10.1h-5v0.6l-0.6-0.6h-1.2l1.8 1.8v1.3l-3.1-3.1h-1.2l4.2 4.2v1.3l-5-5l-0.4 0.7l5.4 5.5v1.3 l-5.9-6l-0.5 0.7l6.4 6.3v1.3l-6.8-6.8l-0.5 0.7l7.3 7.3v1.3l-7.8-7.8l-0.4 0.6l8.3 8.3v1.3l-8.8-8.8l-0.4 0.7l9.2 9.2v1.3 l-9.7-9.7l-10.4 16.6l-10.2-16.1l-9.9 9.9v-1.8l9.3-9.2l-0.3-0.4l-9 9.1v-1.8l8.4-8.4l-0.3-0.4l-8.1 8.1v-1.8l7.4-7.4l-0.3-0.4 l-7.1 7.1v-1.8l6.4-6.5l-0.2-0.4l-6.2 6.2v-1.8l5.5-5.5l-0.2-0.4l-5.3 5.3v-1.8l4.5-4.5l-0.2-0.4l-4.3 4.2v-1.8l3.6-3.6l-0.2-0.4 l-3.4 3.4v-1.4h-0.4l3.1-3.2l-0.2-0.4l-3.5 3.5h-1.8l4.6-4.6l-0.2-0.4l-5 5h-1.5v-0.3l5.8-5.8l-0.3-0.4l-5.5 5.5v-1.8l4.9-4.9 l-0.3-0.4l-4.6 4.6v-1.8l4-3.9l-0.3-0.4l-3.7 3.7v-1.8l2.4-2.4h12.8l9.9 15.8l9.9-15.8H285z M236.4 282.8l-1.8 1.9v-1.8l0.1-0.1 H236.4z M235.4 323.1l10.1 10.1h-1.3l-9.6-9.6v-0.5H235.4z M234.6 324.8l8.4 8.4h-1.3l-7.1-7.1V324.8z M234.6 327.2l6 6h-1.3 l-4.8-4.8V327.2z M234.6 329.6l3.6 3.6h-1.3l-2.3-2.3V329.6z M234.6 332.1l1.2 1.2h-1.2V332.1z M237.8 323.1l10.1 10.1h-1.3 l-10.1-10.1H237.8z M240.3 323.1l10.1 10.1H249L239 323.1h0.6v-1.4l10.1-10.1v1.8l-9.7 9.7H240.3z M249.7 303.6l-10.1 10.1v-1.8 l10.1-10.1V303.6z M239.6 314.3l10.1-10.1v1.8l-10.1 10.1V314.3z M239.6 316.8l10.1-10.1v1.8l-10.1 10.1V316.8z M239.6 319.2 l10.1-10.1v1.8L239.6 321V319.2z M242.7 323.1l10.1 10.1h-1.3l-10.1-10.1h-0.9l9.1-9.1v1.8l-7.3 7.3H242.7z M245.2 323.1l9.6 9.6 v0.5h-0.8l-10.1-10.1H243l6.7-6.7v1.8l-4.9 4.9H245.2z M247.5 323.1l7.2 7.2v1.2l-8.4-8.4h-0.9l4.2-4.2v1.8l-2.4 2.4H247.5z M250 323.1l4.8 4.8v1.3l-6-6h-0.8l1.8-1.8v1.8H250z M252.4 323.1l2.3 2.3v1.3l-3.6-3.6H252.4z M253.6 323.1h1.2v1.2L253.6 323.1z M284.2 323.1h0.8v1l-5 5v0.6l5-5v1.8l-5 5v0.6l5-5v1.8l-4.2 4.2h-11.5l0.9-0.9l-0.2-0.1v-0.3l-1.3 1.3h-1.8l3.3-3.2l-0.2-0.2v-0.3 l-3.7 3.7h-1.3v-0.5l5.3-5.2l-0.2-0.2V327l-5 5v-1.8l5.3-5.2l-0.2-0.2v-0.2l-5 5v-1.8l4.8-4.8h1l-0.7-0.7v-1.3l2 2.1l0.1-0.1h1 l-3.1-3.1v-1.3l4.5 4.5l0.1-0.1h1l-5.5-5.5v-1.3l6.9 6.9l0.1-0.1h1l-8-8v-1.3l9.4 9.4l0.1-0.1h1.8l-1.2 1.2v0.6l1.8-1.8h1.8 l-3.6 3.6v0.6L284.2 323.1z M264.8 325.4l2.3-2.3h1.8l-4.1 4.1V325.4z M264.8 323.1h1.7l-1.7 1.7V323.1z M279.9 313L269.9 303v-1.3 l10.1 10.1V313z M269.9 304.1l10.1 10.1v1.3l-10.1-10.1V304.1z M269.9 306.5l10.1 10.1v1.3l-10.1-10.1V306.5z M269.9 308.9 l10.1 10.1v1.3l-10.1-10.1V308.9z M269.9 311.4l10.1 10.1v1.3l-10.1-10.1V311.4z M271.2 323.8l-0.3-0.3l-0.6 0.5l0.4 0.4 L271.2 323.8z M271.2 326.3l-0.3-0.4l-0.6 0.6l0.4 0.4L271.2 326.3z M271.2 328.7l-0.3-0.4l-0.6 0.6l0.4 0.4L271.2 328.7z M271.2 331.1l-0.3-0.3l-0.6 0.6l0.4 0.3L271.2 331.1z M272.4 325.1l-0.3-0.4l-0.6 0.6l0.3 0.4L272.4 325.1z M272.4 327.5l-0.3-0.4 l-0.6 0.6l0.3 0.4L272.4 327.5z M272.4 330l-0.3-0.4l-0.6 0.6l0.3 0.3L272.4 330z M272.4 332.3l-0.3-0.3l-0.6 0.6l0.3 0.3 L272.4 332.3z M273.7 323.8l-0.3-0.3l-0.6 0.5l0.3 0.4L273.7 323.8z M273.7 326.3l-0.3-0.4l-0.6 0.6l0.3 0.4L273.7 326.3z M273.7 328.7l-0.3-0.4l-0.6 0.6l0.3 0.4L273.7 328.7z M273.7 331.1l-0.3-0.3l-0.6 0.6l0.3 0.3L273.7 331.1z M274.9 325.1l-0.3-0.4 l-0.6 0.6l0.3 0.4L274.9 325.1z M274.9 327.5l-0.3-0.4l-0.6 0.6l0.3 0.4L274.9 327.5z M274.9 330l-0.3-0.4l-0.6 0.6l0.3 0.3 L274.9 330z M274.9 332.3l-0.3-0.3l-0.6 0.6l0.3 0.3L274.9 332.3z M276.1 323.8l-0.3-0.3l-0.6 0.5l0.3 0.4L276.1 323.8z M276.1 326.3l-0.3-0.4l-0.6 0.6l0.3 0.4L276.1 326.3z M276.1 328.7l-0.3-0.4l-0.6 0.6l0.3 0.4L276.1 328.7z M276.1 331.1l-0.3-0.3 l-0.6 0.6l0.3 0.3L276.1 331.1z M277.3 325.1l-0.3-0.4l-0.6 0.6l0.3 0.4L277.3 325.1z M277.3 327.5l-0.3-0.4l-0.6 0.6l0.3 0.4 L277.3 327.5z M277.3 330l-0.3-0.4l-0.6 0.6l0.3 0.3L277.3 330z M277.3 332.3l-0.3-0.3l-0.6 0.6l0.3 0.3L277.3 332.3z M278.6 323.8 l-0.3-0.3l-0.6 0.5l0.3 0.4L278.6 323.8z M278.6 326.3l-0.3-0.4l-0.6 0.6l0.3 0.4L278.6 326.3z M278.6 328.7l-0.3-0.4l-0.6 0.6 l0.3 0.4L278.6 328.7z M278.6 331.1l-0.3-0.3l-0.6 0.6l0.3 0.3L278.6 331.1z M279.8 325.1l-0.4-0.4l-0.5 0.6l0.3 0.4L279.8 325.1z M279.8 327.5l-0.4-0.4l-0.5 0.6l0.3 0.4L279.8 327.5z M279.8 330l-0.4-0.4l-0.5 0.6l0.3 0.3L279.8 330z M279.8 332.3l-0.4-0.3 l-0.5 0.6l0.3 0.3L279.8 332.3z M281.4 333.2l3.6-3.6v1.8l-1.8 1.8H281.4z M283.8 333.2l1.2-1.2v1.2H283.8z"/>
<path fill="#FFFFFF" d="M300.6 282.8l-10.1 10.1h-1.1v-0.7l9.4-9.4H300.6z M296.3 282.8h1.8l-8.7 8.7v-1.8L296.3 282.8z M293.9 282.8h1.8l-6.3 6.3v-1.8L293.9 282.8z M291.5 282.8h1.8l-3.8 3.9v-1.8L291.5 282.8z M289.4 282.8h1.4l-1.4 1.4V282.8z M289.4 323.1h1l10.1 10.1h-1.3l-9.8-9.8V323.1z M289.4 325.8v-1.3l8.7 8.7h-1.3L289.4 325.8z M289.4 328.2v-1.3l6.3 6.3h-1.3 L289.4 328.2z M289.4 330.7v-1.3l3.8 3.8H292L289.4 330.7z M289.4 333.1v-1.3l1.4 1.4L289.4 333.1L289.4 333.1z M293 292.9h-1.8 l10.1-10.1h1.8L293 292.9z M291.6 323.1h1.3l10.1 10.1h-1.3L291.6 323.1z M324.7 297.9h-10.1v-5h-1.6l1.6-1.6v-0.6l-2.2 2.2h-1.8 l4-4v-0.6l-4.6 4.6h-1.8l6.4-6.4v-0.6l-7.1 7.1h-1.8l8.9-8.9v-0.6l-9.5 9.5h-0.6V303h0.6l9.5 9.5v0.6h-0.7L303.8 303h-1.1 l10.1 10.1h-1.3L301.5 303h-1.2l10.1 10.1h-1.3L299 303h-1.2l10.1 10.1h-1.3L296.6 303h-1.2l10.1 10.1h-0.9v10.1h0.5l9.6 9.6 l0.5-0.6l-0.3-0.3l-0.3 0.3v-0.6l-8.4-8.4h1.3l7.2 7.1l0.5-0.6l-0.3-0.3l-0.3 0.3v-0.6l-6-6h1.3l4.8 4.7l0.5-0.6l-0.3-0.3l-0.3 0.3 v-0.6l-3.5-3.5h1.3l2.3 2.3l0.5-0.6l-0.3-0.4l-0.3 0.3v-0.6l-1.1-1.1h1.1V323l4.9-4.9h1.8l-5 5h0.6l5-5h1.8l-5 5h0.6l5-5h0.3v1.5 l-3.5 3.5h0.6l2.9-2.9v1.8l-1.1 1.1h0.6l0.4-0.4v1.9l-0.1-0.1l-0.6 0.6l0.4 0.4l0.3-0.3v1.9l-0.1-0.1l-0.6 0.6l0.4 0.3l0.3-0.3v1.9 h-0.1l-0.6 0.6l0.4 0.3l0.3-0.3v1.9h-0.1l-0.6 0.6l0.4 0.3l0.3-0.3v0.8h-1.1l-0.2-0.1l-0.1 0.1h-2.1l-0.1-0.1l-0.2 0.1h-2.1 l-0.1-0.1l-0.2 0.1h-2.1l-0.1-0.1l-0.1 0.1h-2.2l-10.1-10.1h-1.1l10.1 10.1h-1.3l-10.1-10.1h-1.2l10.1 10.1H309l-10.1-10.1h-1.2 l10.1 10.1h-1.3l-10.1-10.1h-1.2l10.1 10.1h-1.3L294 323.1h0.4v-11.4l1.3 1.3h1.2l-2.4-2.4v-1.3l3.7 3.7h1.1l-4.8-4.8v-1.3l6.1 6.1 h1.2l-7.3-7.3v-1.3l8.6 8.6h1.2l-9.7-9.7v-10.4h-0.9l10.1-10.1h1.8l-10.1 10.1h0.6l10.1-10.1h1.8l-10.1 10.1h0.6l10.1-10.1h1.8 l-10.1 10.1h0.6l10.1-10.1h1.8l-10.1 10.1h0.6l10.1-10.1h11.3V297.9z M306.3 303h1.3l7.1 7.1v1.3L306.3 303z M308.7 303h1.3 l4.6 4.6v1.3L308.7 303z M311.2 303h1.3l2.2 2.2v1.3L311.2 303z M314.6 303v1l-1-1H314.6z M314.6 322.3v-1.8l2.4-2.4h1.8 L314.6 322.3z M314.6 320v-1.8l0.1-0.1h1.8L314.6 320z M316.1 323.3l-0.6 0.6l0.3 0.4l0.6-0.6L316.1 323.3z M316.1 325.7l-0.6 0.6 l0.3 0.4l0.6-0.6L316.1 325.7z M316.1 328.2l-0.6 0.6l0.3 0.3l0.6-0.6L316.1 328.2z M316.1 330.6l-0.6 0.6l0.3 0.3l0.6-0.6 L316.1 330.6z M317.4 324.5l-0.6 0.6l0.3 0.4l0.6-0.6L317.4 324.5z M317.4 326.9l-0.6 0.6l0.3 0.3l0.6-0.6L317.4 326.9z M317.4 329.4l-0.6 0.6l0.3 0.3l0.6-0.6L317.4 329.4z M317.4 331.8l-0.6 0.6l0.3 0.3l0.6-0.6L317.4 331.8z M318.6 323.3l-0.6 0.6 l0.3 0.4l0.6-0.6L318.6 323.3z M318.6 325.7l-0.6 0.6l0.3 0.4l0.6-0.6L318.6 325.7z M318.6 328.2l-0.6 0.6l0.3 0.3l0.6-0.6 L318.6 328.2z M318.6 330.6l-0.6 0.6l0.3 0.3l0.6-0.6L318.6 330.6z M319.8 324.5l-0.6 0.6l0.3 0.4l0.6-0.6L319.8 324.5z M319.8 326.9l-0.6 0.6l0.3 0.3l0.6-0.6L319.8 326.9z M319.8 329.4l-0.6 0.6l0.3 0.3l0.6-0.6L319.8 329.4z M319.8 331.8l-0.6 0.6 l0.3 0.3l0.6-0.6L319.8 331.8z M321 323.3l-0.6 0.6l0.3 0.4l0.6-0.6L321 323.3z M321 325.7l-0.6 0.6l0.3 0.4l0.6-0.6L321 325.7z M321 328.2l-0.6 0.6l0.3 0.3l0.6-0.6L321 328.2z M321 330.6l-0.6 0.6l0.3 0.3l0.6-0.6L321 330.6z M322.3 324.5l-0.6 0.6l0.3 0.4 l0.6-0.6L322.3 324.5z M322.3 326.9l-0.6 0.6l0.3 0.3l0.6-0.6L322.3 326.9z M322.3 329.4l-0.6 0.6l0.3 0.3l0.6-0.6L322.3 329.4z M322.3 331.8l-0.6 0.6l0.3 0.3l0.6-0.6L322.3 331.8z M323.4 323.3l-0.5 0.6l0.3 0.4l0.6-0.6L323.4 323.3z M323.4 325.7l-0.5 0.6 l0.3 0.4l0.6-0.6L323.4 325.7z M323.4 328.2l-0.5 0.6l0.3 0.3l0.6-0.6L323.4 328.2z M323.4 330.6l-0.5 0.6l0.3 0.3l0.6-0.6 L323.4 330.6z"/></svg>